<?xml version="1.0" encoding="UTF-8"?>
<svg id="Layer_1" data-name="Layer 1" xmlns="http://www.w3.org/2000/svg" viewBox="0 0 64 64">
  <defs>
    <style>
      .cls-1 {
        fill: #fbb03b;
      }

      .cls-1, .cls-2 {
        stroke-width: 0px;
      }

      .cls-2 {
        fill: #000;
      }
    </style>
  </defs>
  <g>
    <rect class="cls-1" x=".5" y=".5" width="63" height="63"/>
    <path class="cls-2" d="M63,1v62H1V1h62M64,0H0v64h64V0h0Z"/>
  </g>
  <g>
    <rect class="cls-2" x="6.5" y="7.5" width="23" height="23"/>
    <path class="cls-2" d="M29,8v22H7V8h22M30,7H6v24h24V7h0Z"/>
  </g>
  <g>
    <rect class="cls-2" x="34.5" y="7.5" width="23" height="23"/>
    <path class="cls-2" d="M57,8v22h-22V8h22M58,7h-24v24h24V7h0Z"/>
  </g>
  <g>
    <rect class="cls-2" x="34.5" y="34.5" width="23" height="23"/>
    <path class="cls-2" d="M57,35v22h-22v-22h22M58,34h-24v24h24v-24h0Z"/>
  </g>
  <g>
    <rect class="cls-2" x="6.5" y="34.5" width="23" height="23"/>
    <path class="cls-2" d="M29,35v22H7v-22h22M30,34H6v24h24v-24h0Z"/>
  </g>
</svg>